<?xml version="1.0" encoding="utf-8"?>
<!-- Generator: Adobe Illustrator 16.0.0, SVG Export Plug-In . SVG Version: 6.00 Build 0)  -->
<!DOCTYPE svg PUBLIC "-//W3C//DTD SVG 1.1//EN" "http://www.w3.org/Graphics/SVG/1.1/DTD/svg11.dtd">
<svg version="1.1" id="Capa_1" xmlns="http://www.w3.org/2000/svg" xmlns:xlink="http://www.w3.org/1999/xlink" x="0px" y="0px"
	 width="170.08px" height="170.08px" viewBox="0 0 170.08 170.08" enable-background="new 0 0 170.08 170.08" xml:space="preserve">
<g>
	<defs>
		<rect id="SVGID_1_" x="-6" y="-5.364" width="259.5" height="259.864"/>
	</defs>
	<clipPath id="SVGID_2_">
		<use xlink:href="#SVGID_1_"  overflow="visible"/>
	</clipPath>
	<g clip-path="url(#SVGID_2_)">
		<defs>
			<rect id="SVGID_3_" x="-6" y="-5.364" width="259.5" height="259.864"/>
		</defs>
		<clipPath id="SVGID_4_">
			<use xlink:href="#SVGID_3_"  overflow="visible"/>
		</clipPath>
		<g opacity="0.2" clip-path="url(#SVGID_4_)">
			<g>
				<defs>
					<rect id="SVGID_5_" x="2.576" y="47.786" width="165.146" height="78.96"/>
				</defs>
				<clipPath id="SVGID_6_">
					<use xlink:href="#SVGID_5_"  overflow="visible"/>
				</clipPath>
				<g clip-path="url(#SVGID_6_)">
					<defs>
						<path id="SVGID_7_" d="M24.116,110.849c-6.166,1.548-11.959,3.004-17.774,4.46c0.077,0.188,0.15,0.374,0.228,0.563
							c0.857,0.142,1.683,0.322,2.573,0.423c13.015,1.5,26.323,2.976,39.803,4.589c3.129,0.372,4.654,0.168,5.802-1.502
							c4.494-6.577,9.141-12.924,13.532-19.097c0.274-0.38,0.468-0.768,1.002-1.656c-6.622,1.83-12.48,3.357-18.134,5.049
							c-3.011,0.904-4.691,0.687-6.599-0.357c-15.371-8.421-17.574-17.842-6.215-27.749c11.19-9.761,29.97-15.191,54.86-16.597
							c3.662-0.206,5.376-0.593,6.126-2.055c0.949-1.855,2.434-3.674,3.848-5.471c0.756-0.962-0.217-1.207-2.438-1.202
							c-29.425,0.079-62.154,8.085-78.019,19.531C3.884,83.363,3.33,96.63,22.41,109.584
							C22.887,109.906,23.307,110.246,24.116,110.849"/>
					</defs>
					<clipPath id="SVGID_8_">
						<use xlink:href="#SVGID_7_"  overflow="visible"/>
					</clipPath>
					
						<linearGradient id="SVGID_9_" gradientUnits="userSpaceOnUse" x1="-241.002" y1="480.1016" x2="-239.7988" y2="480.1016" gradientTransform="matrix(71.8764 12.3708 12.3708 -71.8764 11392.4375 37567.375)">
						<stop  offset="0" style="stop-color:#7B98C3"/>
						<stop  offset="0.2913" style="stop-color:#8AABD6"/>
						<stop  offset="0.478" style="stop-color:#90B2DD"/>
						<stop  offset="0.5821" style="stop-color:#82A2CA"/>
						<stop  offset="0.7798" style="stop-color:#607A99"/>
						<stop  offset="1" style="stop-color:#385167"/>
					</linearGradient>
					<polygon clip-path="url(#SVGID_8_)" fill="url(#SVGID_9_)" points="6.223,36.208 118.148,52.286 101.029,135.291 
						-10.896,119.216 					"/>
				</g>
				
					<linearGradient id="SVGID_10_" gradientUnits="userSpaceOnUse" x1="-241.1875" y1="480.1973" x2="-239.9916" y2="480.1973" gradientTransform="matrix(76.804 13.2189 13.2189 -76.8039 12184.1875 40144.2813)">
					<stop  offset="0" style="stop-color:#7B98C3"/>
					<stop  offset="0.2913" style="stop-color:#8AABD6"/>
					<stop  offset="0.478" style="stop-color:#90B2DD"/>
					<stop  offset="0.5821" style="stop-color:#82A2CA"/>
					<stop  offset="0.7798" style="stop-color:#607A99"/>
					<stop  offset="1" style="stop-color:#385167"/>
				</linearGradient>
				<path clip-path="url(#SVGID_6_)" fill="url(#SVGID_10_)" d="M24.116,110.849l0.678,1.887c-6.165,1.55-11.96,3-17.771,4.459
					l-0.682-1.886l2.237-0.629c0.077,0.184,0.151,0.372,0.226,0.562l-2.235,0.627l0.464-1.93c0.946,0.162,1.719,0.329,2.436,0.41
					H9.465c13.009,1.495,26.316,2.973,39.816,4.586c0.778,0.094,1.405,0.141,1.859,0.139c1.292-0.125,0.901,0.039,1.553-0.667
					c4.521-6.608,9.171-12.968,13.558-19.126c0.158-0.213,0.368-0.604,0.919-1.528l2.107,0.877l0.744,1.87
					c-6.647,1.837-12.487,3.356-18.077,5.033c-1.441,0.431-2.75,0.68-4.046,0.683c-1.756,0.014-3.349-0.52-4.647-1.25
					c-9.176-5.017-14.416-10.731-14.444-17.167c0.006-4.652,2.789-9.204,7.819-13.587c11.843-10.297,31.216-15.768,56.409-17.2
					c3.773-0.244,4.035-0.582,4.116-0.863c1.079-2.104,2.646-3.998,4.045-5.781v0.002l0.972,0.534h-1.105
					c0.02-0.468,0.143-0.529,0.134-0.534l0.972,0.534h-1.105h1.509l-0.447,1.384c0.013-0.042-1.067-0.358-1.062-1.384h1.509
					l-0.447,1.384c-0.035-0.017-0.575-0.076-1.317-0.069h-0.091h0.022c-28.909,0.027-61.412,8.096-76.482,19.052
					c-9.273,6.693-13.573,13.018-13.554,18.875c-0.008,5.724,4.044,11.687,13.197,17.913l0.018,0.013l-0.015-0.013
					c0.584,0.4,1.006,0.747,1.785,1.328l3.142,2.34l-4.037,1.011L24.116,110.849l-1.571,1.47c-0.838-0.623-1.259-0.96-1.623-1.208
					l0,0h0C11.21,104.529,5.994,97.532,5.986,90.144c0.018-7.556,5.419-14.809,15.183-21.853
					c16.655-11.937,49.616-19.884,79.554-20.011h0.017h0.006h0.063c1.428,0.219,3.964-0.617,4.977,2.623
					c-0.023,0.769-0.352,1.239-0.645,1.629c-1.429,1.809-2.837,3.558-3.651,5.16c-1.415,2.646-4.589,3.08-8.138,3.248
					c-24.586,1.378-42.776,6.77-53.314,15.995c-4.54,3.965-6.515,7.589-6.51,10.865c-0.028,4.449,3.705,9.15,12.315,13.876
					c0.883,0.47,1.333,0.59,2.058,0.604c0.544,0.002,1.323-0.111,2.451-0.45c5.72-1.714,11.589-3.241,18.188-5.065l5.39-1.489
					l-2.54,4.238c-0.511,0.848-0.695,1.231-1.08,1.782c-4.406,6.182-9.042,12.521-13.518,19.064c-1.019,1.74-3.492,2.78-5.651,2.655
					c-0.807-0.005-1.629-0.077-2.527-0.18c-13.468-1.611-26.77-3.09-39.79-4.587l0,0H8.821c-1.068-0.125-1.947-0.319-2.715-0.445
					l-1.335-0.226l-0.437-1.076c-0.076-0.187-0.153-0.375-0.224-0.56l-0.785-1.93l2.337-0.584
					c5.812-1.461,11.609-2.914,17.773-4.462L24.116,110.849l-1.571,1.47L24.116,110.849z"/>
				<g clip-path="url(#SVGID_6_)">
					<defs>
						<path id="SVGID_11_" d="M139.307,58.939c5.596-1.368,10.656-2.605,15.703-3.837c-0.109-0.141-0.22-0.278-0.332-0.419
							c-3.622-0.223-7.224-0.448-10.811-0.673c-9.996-0.619-19.865-1.223-29.588-1.844c-1.932-0.123-3.389-0.177-4.078,0.843
							c-3.542,5.26-7.324,10.667-11.449,16.639c5.66-1.49,10.591-2.783,15.499-4.079c4.718-1.246,4.796-1.276,8.335,0.228
							c16.88,7.167,22.05,16.284,12.691,26.84c-10.443,11.789-31.904,18.528-61.204,19.572c-3.652,0.129-5.458,0.571-6.402,2.293
							c-1.389,2.53-3.256,5.06-5.212,7.601c-1.215,1.58-0.523,2.17,3.073,2.181c37.814,0.139,67.904-7.265,87.436-21.78
							c19.733-14.663,13.776-32.063-10.784-42.273C141.366,59.89,140.619,59.527,139.307,58.939"/>
					</defs>
					<clipPath id="SVGID_12_">
						<use xlink:href="#SVGID_11_"  overflow="visible"/>
					</clipPath>
					
						<linearGradient id="SVGID_13_" gradientUnits="userSpaceOnUse" x1="-241.1284" y1="480.2656" x2="-239.9271" y2="480.2656" gradientTransform="matrix(78.3016 13.4767 13.4766 -78.3016 12478.0625 40935.1875)">
						<stop  offset="0" style="stop-color:#7B98C3"/>
						<stop  offset="0.2913" style="stop-color:#8AABD6"/>
						<stop  offset="0.478" style="stop-color:#90B2DD"/>
						<stop  offset="0.5821" style="stop-color:#82A2CA"/>
						<stop  offset="0.7798" style="stop-color:#607A99"/>
						<stop  offset="1" style="stop-color:#385167"/>
					</linearGradient>
					<polygon clip-path="url(#SVGID_12_)" fill="url(#SVGID_13_)" points="64.45,36.44 187.209,54.074 169.493,139.97 
						46.731,122.337 					"/>
				</g>
				
					<linearGradient id="SVGID_14_" gradientUnits="userSpaceOnUse" x1="-241.311" y1="480.2773" x2="-240.1174" y2="480.2773" gradientTransform="matrix(83.2292 14.3248 14.3247 -83.2291 13270.25 43511.6875)">
					<stop  offset="0" style="stop-color:#7B98C3"/>
					<stop  offset="0.2913" style="stop-color:#8AABD6"/>
					<stop  offset="0.478" style="stop-color:#90B2DD"/>
					<stop  offset="0.5821" style="stop-color:#82A2CA"/>
					<stop  offset="0.7798" style="stop-color:#607A99"/>
					<stop  offset="1" style="stop-color:#385167"/>
				</linearGradient>
				<path clip-path="url(#SVGID_6_)" fill="url(#SVGID_14_)" d="M139.307,58.939l-0.662-1.89c5.594-1.368,10.655-2.602,15.702-3.836
					l0.663,1.89l-1.958,1.093c-0.116-0.141-0.229-0.282-0.343-0.426l1.969-1.085l-0.174,1.962
					c-3.623-0.224-7.225-0.447-10.813-0.671c-9.996-0.621-19.865-1.226-29.588-1.846l0,0c-0.55-0.034-1.017-0.059-1.366-0.059
					c-0.438-0.004-0.675,0.048-0.675,0.053l-0.142-0.309l0.342,0.16c0.002,0.026-0.188,0.153-0.2,0.149l-0.142-0.309l0.342,0.16
					c-3.56,5.281-7.344,10.692-11.469,16.657l-2.041-0.983l-0.71-1.878c5.664-1.491,10.591-2.784,15.499-4.078
					c2.267-0.583,3.558-0.985,5.208-1.008c1.841,0.015,3.119,0.609,4.904,1.357c11.53,4.89,18.545,11.009,18.603,18.555
					c-0.002,3.708-1.762,7.472-5.08,11.214c-11.188,12.547-33.364,19.292-63.001,20.366c-3.701,0.211-3.926,0.436-4.356,1.145
					c-1.477,2.686-3.403,5.283-5.375,7.847l-0.178,0.09h-1.18l0.435-1.083c-0.017,0.046,0.836,0.462,0.745,1.083h-1.18l0.435-1.083
					c0.115,0.046,0.873,0.147,2.025,0.143c0.336,0,0.67,0.005,1.001,0.005c36.984,0,66.123-7.349,84.853-21.288
					c7.687-5.725,11.012-11.609,11.015-17.119c0.031-7.986-7.148-16.031-21.286-21.921c-0.908-0.379-1.661-0.746-2.943-1.322
					l-5.049-2.276l5.508-1.346L139.307,58.939l1.122-1.734c1.335,0.603,2.078,0.96,2.805,1.262
					c15.001,6.223,23.871,15.349,23.896,25.446c0.007,6.896-4.219,13.852-12.589,20.058c-19.982,14.836-50.299,22.278-87.994,22.282
					c-0.337,0-0.682,0-1.022,0c-2.284-0.071-5.336,0.124-5.977-2.998c0.036-1.007,0.481-1.604,0.927-2.219
					c1.941-2.516,3.75-4.98,5.052-7.355c1.456-2.731,4.843-3.394,8.446-3.442c28.958-1.008,49.706-7.742,59.411-18.771
					c2.905-3.287,4.155-6.232,4.155-8.874c0.056-5.186-5.031-10.368-16.025-15.044c-1.878-0.81-2.405-0.946-2.765-0.932
					c-0.401-0.021-1.503,0.209-3.786,0.827c-4.908,1.293-9.841,2.588-15.505,4.079l-5.777,1.519l3.025-4.38
					c4.131-5.978,7.909-11.379,11.442-16.621c1.08-1.632,3.272-1.961,4.588-1.911c0.587,0.002,1.157,0.033,1.726,0.071l0,0l0,0
					c9.716,0.62,19.582,1.224,29.578,1.846c3.589,0.22,7.194,0.445,10.811,0.669l1.154,0.072l0.641,0.807
					c0.108,0.136,0.215,0.273,0.328,0.41l1.787,2.231l-3.087,0.753c-5.05,1.233-10.109,2.469-15.702,3.835L139.307,58.939
					l1.122-1.734L139.307,58.939z"/>
			</g>
		</g>
	</g>
	<g clip-path="url(#SVGID_2_)">
		<defs>
			<path id="SVGID_15_" d="M99.66,48.288c-29.423,0.078-62.152,8.084-78.017,19.533C2.816,81.403,2.26,94.67,21.342,107.624
				c0.477,0.322,0.896,0.667,1.704,1.266c-6.166,1.55-11.961,3.001-17.774,4.461c0.077,0.189,0.15,0.373,0.227,0.562
				c0.854,0.141,1.683,0.322,2.577,0.423c13.012,1.499,26.316,2.976,39.801,4.589c3.127,0.372,4.654,0.171,5.796-1.502
				c4.498-6.577,9.141-12.924,13.538-19.096c0.274-0.381,0.467-0.77,1.001-1.654c-6.623,1.83-12.481,3.354-18.134,5.051
				c-3.012,0.901-4.696,0.682-6.601-0.361c-15.37-8.421-17.572-17.843-6.214-27.747c11.189-9.764,29.97-15.193,54.858-16.598
				c3.661-0.208,5.378-0.593,6.128-2.057c0.948-1.853,2.434-3.674,3.849-5.471c0.747-0.948-0.192-1.2-2.359-1.2
				C99.718,48.288,99.688,48.288,99.66,48.288"/>
		</defs>
		<clipPath id="SVGID_16_">
			<use xlink:href="#SVGID_15_"  overflow="visible"/>
		</clipPath>
		
			<linearGradient id="SVGID_17_" gradientUnits="userSpaceOnUse" x1="-240.9595" y1="479.9873" x2="-239.7564" y2="479.9873" gradientTransform="matrix(71.8764 12.3708 12.3708 -71.8764 11389.75 37556.75)">
			<stop  offset="0" style="stop-color:#7B98C3"/>
			<stop  offset="0.2913" style="stop-color:#8AABD6"/>
			<stop  offset="0.478" style="stop-color:#90B2DD"/>
			<stop  offset="0.5821" style="stop-color:#82A2CA"/>
			<stop  offset="0.7798" style="stop-color:#607A99"/>
			<stop  offset="1" style="stop-color:#385167"/>
		</linearGradient>
		<polygon clip-path="url(#SVGID_16_)" fill="url(#SVGID_17_)" points="5.154,34.257 117.072,50.333 99.952,133.329 
			-11.966,117.255 		"/>
	</g>
	<g clip-path="url(#SVGID_2_)">
		<defs>
			<rect id="SVGID_18_" x="-6" y="-5.364" width="259.5" height="259.864"/>
		</defs>
		<clipPath id="SVGID_19_">
			<use xlink:href="#SVGID_18_"  overflow="visible"/>
		</clipPath>
		
			<linearGradient id="SVGID_20_" gradientUnits="userSpaceOnUse" x1="-241.1494" y1="480.0898" x2="-239.9535" y2="480.0898" gradientTransform="matrix(76.804 13.2189 13.2189 -76.8039 12181.625 40133.5938)">
			<stop  offset="0" style="stop-color:#7B98C3"/>
			<stop  offset="0.2913" style="stop-color:#8AABD6"/>
			<stop  offset="0.478" style="stop-color:#90B2DD"/>
			<stop  offset="0.5821" style="stop-color:#82A2CA"/>
			<stop  offset="0.7798" style="stop-color:#607A99"/>
			<stop  offset="1" style="stop-color:#385167"/>
		</linearGradient>
		<path clip-path="url(#SVGID_19_)" fill="url(#SVGID_20_)" d="M23.046,108.89l0.679,1.888c-6.166,1.545-11.962,2.999-17.773,4.456
			l-0.68-1.883l2.236-0.632c0.074,0.188,0.151,0.378,0.228,0.564L5.5,113.912l0.464-1.932c0.946,0.16,1.718,0.326,2.435,0.405H8.397
			c13.008,1.495,26.316,2.976,39.816,4.589c0.777,0.097,1.404,0.143,1.858,0.14c1.29-0.127,0.903,0.038,1.554-0.666
			c4.52-6.611,9.172-12.972,13.56-19.128c0.156-0.211,0.363-0.603,0.914-1.528l2.11,0.88l0.744,1.867
			c-6.646,1.838-12.487,3.359-18.077,5.036c-1.441,0.43-2.749,0.678-4.049,0.682c-1.753,0.013-3.345-0.521-4.644-1.249
			c-9.175-5.019-14.416-10.732-14.444-17.17c0.007-4.652,2.788-9.202,7.819-13.585c11.843-10.301,31.216-15.767,56.407-17.201
			c3.776-0.245,4.037-0.584,4.118-0.865c1.081-2.104,2.646-3.995,4.044-5.778l0.044-0.053l-0.044,0.053l0.974,0.534h-1.106
			c0.019-0.468,0.142-0.527,0.133-0.534l0.974,0.534h-1.106h1.511l-0.448,1.383c0.012-0.039-1.067-0.356-1.063-1.383h1.511
			l-0.448,1.383c-0.034-0.017-0.576-0.076-1.318-0.069h-0.09h0.022c-28.912,0.031-61.414,8.094-76.483,19.052
			C13.91,76.002,9.613,82.325,9.633,88.184c-0.008,5.724,4.041,11.687,13.197,17.914l0,0l0.003,0.003
			c0.584,0.397,1.005,0.743,1.785,1.322l3.144,2.341l-4.037,1.014L23.046,108.89l-1.571,1.471c-0.838-0.627-1.258-0.965-1.623-1.212
			l-0.02-0.014l0.021,0.018c-9.713-6.584-14.929-13.579-14.937-20.969c0.018-7.556,5.417-14.806,15.184-21.853
			C36.754,54.395,69.711,46.447,99.654,46.32h0.006h0.016h0.063c1.427,0.218,3.967-0.615,4.975,2.623
			c-0.021,0.768-0.348,1.238-0.641,1.628c-1.437,1.81-2.839,3.558-3.652,5.163c-1.417,2.645-4.589,3.077-8.138,3.246
			c-24.587,1.377-42.777,6.769-53.315,15.995c-4.54,3.962-6.516,7.59-6.509,10.863c-0.027,4.449,3.706,9.15,12.315,13.877
			c0.883,0.469,1.332,0.591,2.054,0.604c0.547,0,1.326-0.114,2.454-0.451c5.72-1.715,11.589-3.241,18.188-5.066l5.391-1.489
			l-2.541,4.24c-0.51,0.846-0.694,1.229-1.078,1.78c-4.409,6.185-9.043,12.524-13.519,19.064c-1.02,1.743-3.493,2.777-5.652,2.654
			c-0.807,0-1.628-0.071-2.527-0.18c-13.471-1.611-26.768-3.086-39.791-4.583l0,0H7.752c-1.068-0.126-1.948-0.32-2.716-0.447
			L3.7,115.617l-0.435-1.076c-0.075-0.188-0.152-0.374-0.226-0.562l-0.783-1.929l2.338-0.588c5.813-1.458,11.607-2.911,17.773-4.457
			L23.046,108.89l-1.571,1.471L23.046,108.89z"/>
	</g>
	<g clip-path="url(#SVGID_2_)">
		<defs>
			<path id="SVGID_21_" d="M109.134,51.049c-3.546,5.258-7.326,10.667-11.45,16.638c5.66-1.49,10.592-2.786,15.5-4.081
				c4.718-1.243,4.794-1.272,8.332,0.229c16.88,7.167,22.049,16.283,12.691,26.842c-10.442,11.787-31.904,18.528-61.203,19.569
				c-3.65,0.13-5.459,0.573-6.402,2.294c-1.388,2.53-3.255,5.063-5.216,7.601c-1.213,1.581-0.518,2.168,3.079,2.182
				c37.813,0.138,67.903-7.261,87.437-21.783c19.729-14.659,13.774-32.059-10.791-42.269c-0.815-0.342-1.565-0.705-2.871-1.292
				c5.592-1.367,10.655-2.604,15.701-3.837c-0.109-0.139-0.222-0.279-0.333-0.419c-3.619-0.224-7.225-0.448-10.811-0.671
				c-9.995-0.62-19.864-1.226-29.587-1.846c-0.558-0.035-1.074-0.064-1.544-0.064C110.503,50.143,109.623,50.322,109.134,51.049"/>
		</defs>
		<clipPath id="SVGID_22_">
			<use xlink:href="#SVGID_21_"  overflow="visible"/>
		</clipPath>
		
			<linearGradient id="SVGID_23_" gradientUnits="userSpaceOnUse" x1="-241.0918" y1="480.1592" x2="-239.8908" y2="480.1592" gradientTransform="matrix(78.3016 13.4767 13.4766 -78.3016 12475.5 40924.5)">
			<stop  offset="0" style="stop-color:#7B98C3"/>
			<stop  offset="0.2913" style="stop-color:#8AABD6"/>
			<stop  offset="0.478" style="stop-color:#90B2DD"/>
			<stop  offset="0.5821" style="stop-color:#82A2CA"/>
			<stop  offset="0.7798" style="stop-color:#607A99"/>
			<stop  offset="1" style="stop-color:#385167"/>
		</linearGradient>
		<polygon clip-path="url(#SVGID_22_)" fill="url(#SVGID_23_)" points="63.377,34.593 186.113,52.222 168.426,138.008 
			45.688,120.382 		"/>
	</g>
	<g clip-path="url(#SVGID_2_)">
		<defs>
			<rect id="SVGID_24_" x="-6" y="-5.364" width="259.5" height="259.864"/>
		</defs>
		<clipPath id="SVGID_25_">
			<use xlink:href="#SVGID_24_"  overflow="visible"/>
		</clipPath>
		
			<linearGradient id="SVGID_26_" gradientUnits="userSpaceOnUse" x1="-241.2749" y1="480.1777" x2="-240.0807" y2="480.1777" gradientTransform="matrix(83.2292 14.3248 14.3247 -83.2291 13267.625 43501)">
			<stop  offset="0" style="stop-color:#7B98C3"/>
			<stop  offset="0.2913" style="stop-color:#8AABD6"/>
			<stop  offset="0.478" style="stop-color:#90B2DD"/>
			<stop  offset="0.5821" style="stop-color:#82A2CA"/>
			<stop  offset="0.7798" style="stop-color:#607A99"/>
			<stop  offset="1" style="stop-color:#385167"/>
		</linearGradient>
		<path clip-path="url(#SVGID_25_)" fill="url(#SVGID_26_)" d="M138.239,56.979l-0.663-1.891c5.593-1.366,10.654-2.603,15.701-3.836
			l0.663,1.89l-1.956,1.094c-0.116-0.142-0.229-0.283-0.345-0.426l1.968-1.087l-0.172,1.964c-3.623-0.226-7.229-0.449-10.814-0.672
			c-9.996-0.621-19.864-1.227-29.589-1.847l0,0l0,0c-0.546-0.035-1.013-0.059-1.366-0.058c-0.437-0.003-0.674,0.047-0.674,0.052
			l-0.14-0.307l0.338,0.16c0.004,0.026-0.185,0.153-0.198,0.147l-0.14-0.307l0.338,0.16c-3.559,5.279-7.342,10.688-11.464,16.655
			l-2.049-0.982l-0.705-1.877c5.663-1.489,10.592-2.784,15.5-4.078c2.268-0.583,3.557-0.985,5.207-1.01
			c1.838,0.016,3.121,0.612,4.906,1.357c11.529,4.89,18.543,11.01,18.6,18.558c0,3.704-1.763,7.471-5.079,11.21
			c-11.188,12.546-33.364,19.294-63.002,20.366c-3.7,0.213-3.923,0.437-4.354,1.147c-1.477,2.688-3.403,5.283-5.375,7.843
			c0,0.003-0.178,0.088-0.178,0.088h-1.181l0.437-1.078c-0.017,0.047,0.835,0.465,0.744,1.078h-1.181l0.437-1.078
			c0.113,0.044,0.872,0.149,2.024,0.143c0.334,0.002,0.67,0.002,1.002,0.002c36.983,0.005,66.119-7.347,84.853-21.287
			c7.685-5.725,11.009-11.607,11.013-17.119c0.03-7.987-7.148-16.03-21.284-21.921c-0.906-0.377-1.662-0.746-2.943-1.322
			l-5.051-2.275l5.51-1.346L138.239,56.979l1.117-1.733c1.339,0.603,2.084,0.959,2.809,1.261
			c15.002,6.223,23.871,15.351,23.896,25.446c0.003,6.899-4.219,13.854-12.588,20.058c-19.986,14.835-50.302,22.283-87.995,22.283
			c-0.34,0-0.683,0-1.023,0c-2.286-0.075-5.335,0.123-5.977-3.002c0.035-1.003,0.481-1.6,0.926-2.214
			c1.943-2.517,3.752-4.983,5.052-7.359c1.458-2.729,4.844-3.39,8.447-3.438c28.957-1.01,49.706-7.745,59.409-18.773
			c2.907-3.287,4.153-6.228,4.153-8.87c0.058-5.19-5.031-10.372-16.021-15.048c-1.877-0.808-2.404-0.947-2.765-0.927
			c-0.402-0.024-1.504,0.208-3.786,0.823c-4.911,1.297-9.841,2.592-15.504,4.08l-5.78,1.518l3.026-4.38
			c4.133-5.977,7.909-11.378,11.442-16.618c1.08-1.634,3.271-1.963,4.588-1.912c0.59,0,1.157,0.035,1.723,0.069l0,0h0.002
			c9.718,0.621,19.583,1.225,29.582,1.845c3.587,0.224,7.189,0.448,10.808,0.673l1.155,0.072l0.641,0.803
			c0.105,0.136,0.214,0.273,0.324,0.41l1.79,2.23l-3.086,0.753c-5.048,1.233-10.108,2.472-15.704,3.838L138.239,56.979l1.117-1.733
			L138.239,56.979z"/>
		<path clip-path="url(#SVGID_25_)" fill="#CA5E23" d="M95.511,83.685c0,5.328-5.246,9.648-11.719,9.648
			c-6.472,0-11.716-4.32-11.716-9.648c0-5.327,5.244-9.647,11.716-9.647C90.265,74.038,95.511,78.358,95.511,83.685"/>
	</g>
</g>
</svg>
